{"title":"Andron 2015 Movies BRRip XviD AAC New Source with Sample ☻rDX☻","uid":15688504,"size":740214775,"categoryP":"video","categoryS":"movies","magnet":"?xt=urn:btih:04e357b40627a308660a8e4b633e798f792e05c1&amp;dn=Andron+2015+Movies+BRRip+XviD+AAC+New+Source+with+Sample+%E2%98%BBrDX%E2%98%BB&amp;tr=udp%3A%2F%2Ftracker.leechers-paradise.org%3A6969&amp;tr=udp%3A%2F%2Fzer0day.ch%3A1337&amp;tr=udp%3A%2F%2Fopen.demonii.com%3A1337&amp;tr=udp%3A%2F%2Ftracker.coppersurfer.tk%3A6969&amp;tr=udp%3A%2F%2Fexodus.desync.com%3A6969","seeders":2,"leechers":1,"uploader":"basicssom","files":2,"time":1472371097,"description":"----------------------------------------------------------------\r\nAndron 2015 English Movies BRRip XviD AAC New Source with Sample ☻rDX☻\r\n\r\nSCREEN SHOTS &amp; POSTER:\r\n  \nhttp://postimage.co.nr/2016/8/calling/index.htm  \nhttp://postimage.co.nr/2016/8/calling/1.html  \nhttp://postimage.co.nr/2016/8/calling/2.html  \nhttp://postimage.co.nr/2016/8/calling/3.html  \nhttp://postimage.co.nr/2016/8/calling/4.html  \nhttp://postimage.co.nr/2016/8/calling/5.html  \nhttp://postimage.co.nr/2016/8/calling/6.html  \nhttp://postimage.co.nr/2016/8/calling/7.html  \nhttp://postimage.co.nr/2016/8/calling/8.html  \nhttp://postimage.co.nr/2016/8/calling/9.html  \nhttp://postimage.co.nr/2016/8/calling/10.html\r\n\r\nFormat                                   : Matroska\r\nFormat version                           : Version 2\r\nFile size                                : 699 MiB\r\nDuration                                 : 1 h 36 min\r\nOverall bit rate mode                    : Constant\r\nOverall bit rate                         : 1 012 kb/s\r\nWriting application                      : Lavf55.12.100\r\nWriting library                          : Lavf55.12.100 / Lavf55.12.100\r\n\r\nVideo\r\nID                                       : 2\r\nFormat                                   : AVC\r\nFormat/Info                              : Advanced Video Codec\r\nFormat profile                           :   \r\nFormat settings, CABAC                   : Yes\r\nFormat settings, ReFrames                : 2 frames\r\nFormat settings, GOP                     : M=1, N=12\r\nCodec ID                                 : V_MPEG4/ISO/AVC\r\nDuration                                 : 1 h 36 min\r\nBit rate mode                            : Constant\r\nBit rate                                 : 564 kb/s\r\nWidth                                    : 720 pixels\r\nHeight                                   : 300 pixels\r\nDisplay aspect ratio                     : 2.40:1\r\nFrame rate mode                          : Constant\r\nFrame rate                               : 23.976 (24000/1001) FPS\r\nColor space                              : YUV\r\nChroma subsampling                       : 4:2:0\r\nBit depth                                : 8 bits\r\nScan type                                : Progressive\r\nBits/(Pixel*Frame)                       : 0.109\r\nStream size                              : 376 MiB (54%)\r\nDefault                                  : Yes\r\nForced                                   : No\r\n\r\nAudio\r\nID                                       : 1\r\nFormat                                   : AC-3\r\nFormat/Info                              : Audio Coding 3\r\nMode extension                           : CM (complete main)\r\nFormat settings, Endianness              : Big\r\nCodec ID                                 : A_AC3\r\nDuration                                 : 1 h 36 min\r\nBit rate mode                            : Constant\r\nBit rate                                 : 448 kb/s\r\nChannel(s)                               : 6 channels\r\nChannel positions                        : Front: L C R, Side: L R, LFE\r\nSampling rate                            : 48.0 kHz\r\nFrame rate                               : 31.250 FPS (1536 spf)\r\nBit depth                                : 32 bits\r\nCompression mode                         : Lossy\r\nStream size                              : 309 MiB (44%)\r\nDefault                                  : Yes\r\nForced                                   : No\r\n\r\nIMDB \nhttp://www.imdb.com/title/tt4073890/","torrent":{"xt":"urn:btih:04e357b40627a308660a8e4b633e798f792e05c1","amp;dn":"Andron+2015+Movies+BRRip+XviD+AAC+New+Source+with+Sample+%E2%98%BBrDX%E2%98%BB","amp;tr":["udp%3A%2F%2Ftracker.leechers-paradise.org%3A6969","udp%3A%2F%2Fzer0day.ch%3A1337","udp%3A%2F%2Fopen.demonii.com%3A1337","udp%3A%2F%2Ftracker.coppersurfer.tk%3A6969","udp%3A%2F%2Fexodus.desync.com%3A6969"],"infoHash":"04e357b40627a308660a8e4b633e798f792e05c1","infoHashBuffer":{"type":"Buffer","data":[4,227,87,180,6,39,163,8,102,10,142,75,99,62,121,143,121,46,5,193]},"announce":[],"urlList":[]}}